<?xml version="1.0" encoding="UTF-8" standalone="no"?>
<svg
   version="1.1"
   width="268"
   height="45"
   id="svg18"
   xmlns:xlink="http://www.w3.org/1999/xlink"
   xmlns="http://www.w3.org/2000/svg"
   xmlns:svg="http://www.w3.org/2000/svg">
  <defs
     id="defs22">
    <linearGradient
       id="linearGradient1213">
      <stop
         style="stop-color:#ffe9d0;stop-opacity:1"
         offset="0"
         id="stop1209" />
      <stop
         style="stop-color:#dbffe7;stop-opacity:1"
         offset="1"
         id="stop1211" />
    </linearGradient>
    <linearGradient
       xlink:href="#linearGradient1213"
       id="linearGradient1215"
       x1="53.952435"
       y1="17.285391"
       x2="118.88017"
       y2="38.577621"
       gradientUnits="userSpaceOnUse" />
  </defs>
  <g
     style="opacity:1;fill:#ffffff;fill-opacity:1;fill-rule:evenodd;stroke:#000000;stroke-width:1.50032;stroke-linecap:round;stroke-linejoin:round;stroke-miterlimit:4;stroke-dasharray:none;stroke-opacity:1"
     transform="matrix(1.3890385,0,0,1.3890385,-8.2124947,-9.429036)"
     id="g16">
    <path
       d="m 10.125,38.025002 h 27 v -3 h -27 z"
       style="stroke-width:1.50032;stroke-linecap:butt;stroke-miterlimit:4;stroke-dasharray:none"
       id="path2" />
    <path
       d="m 13.800003,35.025002 v -4 h 21 v 4 z"
       style="stroke-width:1.50032;stroke-linecap:butt;stroke-miterlimit:4;stroke-dasharray:none"
       id="path4" />
    <path
       d="M 12.800003,13.025002 V 8.0250015 h 4 v 2.0000005 h 5 V 8.0250015 h 5 v 2.0000005 h 5 V 8.0250015 h 4 v 5.0000005"
       style="stroke-width:1.50032;stroke-linecap:butt;stroke-miterlimit:4;stroke-dasharray:none"
       id="path6" />
    <path
       d="m 35.800003,13.025002 -3,3 c -0.71693,7.215754 -16.936402,6.571163 -17,0 l -3,-3"
       id="path8"
       style="stroke-width:1.50032;stroke-miterlimit:4;stroke-dasharray:none" />
    <path
       d="m 32.800003,16.025002 v 12.5 h -17 v -12.5"
       style="stroke-width:1.50032;stroke-linecap:butt;stroke-linejoin:miter;stroke-miterlimit:4;stroke-dasharray:none"
       id="path10" />
    <path
       d="m 32.800003,28.525002 1.5,2.5 h -20 l 1.5,-2.5"
       id="path12"
       style="stroke-width:1.50032;stroke-miterlimit:4;stroke-dasharray:none" />
    <path
       d="m 12.800003,13.025002 h 23"
       style="display:inline;fill:none;stroke:#000000;stroke-width:1.50032;stroke-linejoin:miter;stroke-miterlimit:4;stroke-dasharray:none"
       id="path14" />
    <g
       style="fill:none;fill-opacity:1;fill-rule:evenodd;stroke:#000000;stroke-width:1.50032;stroke-linecap:round;stroke-linejoin:round;stroke-miterlimit:4;stroke-dasharray:none;stroke-opacity:1"
       transform="translate(0.85714002,1.1964315)"
       id="g10">
      <path
         d="m 24,18 c 0.38,2.91 -5.55,7.37 -8,9 -3,2 -2.82,4.34 -5,4 -1.042,-0.94 1.41,-3.04 0,-3 -1,0 0.19,1.23 -1,2 -1,0 -4.003,1 -4,-4 0,-2 6,-12 6,-12 0,0 0.240002,-0.55 1.057147,-1.785714"
         style="fill:#ffffff;stroke:#000000;stroke-width:1.50032;stroke-miterlimit:4;stroke-dasharray:none"
         id="path4-3" />
      <path
         d="m 9.5,25.5 a 0.5,0.5 0 1 1 -1,0 0.5,0.5 0 1 1 1,0 z"
         style="fill:#000000;stroke:#000000;stroke-width:1.50032;stroke-miterlimit:4;stroke-dasharray:none"
         id="path6-6" />
      <path
         d="m 15,15.5 a 0.5,1.5 0 1 1 -1,0 0.5,1.5 0 1 1 1,0 z"
         style="fill:#000000;stroke:#000000;stroke-width:1.50035;stroke-miterlimit:4;stroke-dasharray:none"
         id="path8-7"
         transform="matrix(0.866,0.5,-0.5,0.866,9.693,-5.173)" />
    </g>
  </g>
  <g
     aria-label="ReChess"
     id="text2705"
     style="font-size:52.6456px;line-height:1.25;display:inline;fill:#ffffff;stroke:#000000;stroke-width:2.18212;stroke-linejoin:round;stroke-miterlimit:4;stroke-dasharray:none"
     transform="matrix(0.95503242,0,0,0.95503242,2.2342381,1.981181)">
    <g
       id="g48405"
       style="mix-blend-mode:multiply;fill:url(#linearGradient1215);fill-opacity:1;stroke:#000000;stroke-width:2.18212;stroke-miterlimit:4;stroke-dasharray:none;stroke-opacity:1">
      <path
         d="M 58.747732,3.3518438 H 79.49236 q 2.570586,0 4.447114,0.8739992 1.876528,0.8739992 3.084703,2.2878214 1.208175,1.3881164 1.773704,3.1875266 0.591235,1.773704 0.591235,3.624526 0,2.519174 -0.719764,4.498525 -0.719764,1.979352 -2.23641,3.521703 -1.516645,1.542352 -2.981879,2.262116 -1.465234,0.719764 -2.082175,1.002528 0.257059,0.231353 0.694058,0.771176 0.437,0.514117 0.796882,1.645175 0.359882,1.105352 0.411294,2.647703 l 0.154235,5.603878 h 3.701644 l -1.645175,7.043405 H 73.914189 l 0.616941,-9.254109 q 0.102823,-1.645175 -0.12853,-2.827645 -0.205647,-1.208175 -0.848293,-1.953645 -0.616941,-0.771176 -1.670881,-1.131058 -1.05394,-0.359882 -2.621997,-0.359882 h -2.467763 l -1.979351,8.482934 h 3.29035 l -1.619469,7.043405 H 50.727504 l 1.645175,-7.043405 h 3.444585 l 5.783819,-24.857566 h -4.498526 z m 11.850401,7.0691112 -2.210704,9.43405 h 4.884114 q 1.593763,0 2.879056,-0.30847 1.310999,-0.334176 2.236409,-1.002529 0.925411,-0.668352 1.413823,-1.696586 0.514117,-1.028235 0.514117,-2.416351 0,-1.825116 -1.079646,-2.904762 -1.05394,-1.105352 -3.547409,-1.105352 z"
         style="font-style:italic;fill:url(#linearGradient1215);fill-opacity:1;stroke:#000000;stroke-width:2.18212;stroke-miterlimit:4;stroke-dasharray:none;stroke-opacity:1"
         id="path42482" />
      <path
         d="m 98.283342,31.011348 q 0.05141,0.616941 0.205647,1.18247 0.257059,0.976822 0.848294,1.722292 0.61694,0.719764 1.593767,1.156764 0.97682,0.411294 2.36493,0.411294 1.02824,0 1.87653,-0.205647 0.874,-0.205647 1.64518,-0.565529 0.77117,-0.385588 1.46523,-0.899705 0.71977,-0.514117 1.41382,-1.131058 l 5.65529,4.961231 q -2.59629,2.776233 -5.98946,4.087231 -3.39318,1.285293 -7.30047,1.285293 -2.51917,0 -4.729874,-0.822587 -2.210704,-0.822588 -3.855879,-2.339233 -1.645175,-1.542352 -2.621998,-3.72735 -0.951117,-2.184998 -0.951117,-4.909819 0,-3.675938 1.310999,-6.683523 1.336705,-3.007586 3.573115,-5.141172 2.236409,-2.159292 5.166877,-3.316056 2.956177,-1.18247 6.220817,-1.18247 2.59629,0 4.78129,0.925411 2.185,0.899705 3.75306,2.442057 1.59376,1.516646 2.46776,3.521703 0.8997,2.005057 0.8997,4.164349 0,0.514117 -0.0514,1.156764 -0.0514,0.642646 -0.15423,1.336704 -0.10283,0.668353 -0.25706,1.336705 -0.15424,0.668352 -0.33418,1.233881 z m 1.105352,-6.169406 q -0.102823,0.179941 -0.179941,0.359882 h 11.130637 q -0.0514,-0.694058 -0.46271,-1.336705 -0.38558,-0.668352 -1.05394,-1.182469 -0.64264,-0.514117 -1.54235,-0.822588 -0.874,-0.334176 -1.95364,-0.334176 -1.2853,0 -2.46776,0.385588 -1.15677,0.385588 -2.05647,1.131058 -0.874003,0.719764 -1.413826,1.79941 z"
         style="font-style:italic;fill:url(#linearGradient1215);fill-opacity:1;stroke:#000000;stroke-width:2.18212;stroke-miterlimit:4;stroke-dasharray:none;stroke-opacity:1"
         id="path42484" />
    </g>
    <path
       d="m 147.99342,15.202245 q -1.43953,-2.056469 -2.5963,-2.904762 -1.15676,-0.873999 -2.49346,-1.233882 -1.33671,-0.385587 -2.80194,-0.385587 -2.15929,0 -4.01012,0.976822 -1.85082,0.951117 -3.21323,2.621998 -1.3367,1.645175 -2.10788,3.855879 -0.77117,2.184998 -0.77117,4.65276 0,2.493469 0.74547,4.704172 0.77117,2.184998 2.10788,3.830173 1.3367,1.645175 3.18752,2.621998 1.85082,0.951117 4.06153,0.951117 1.54235,0 2.87905,-0.488411 1.33671,-0.514118 2.41635,-1.336705 1.10536,-0.822588 1.92794,-1.876528 0.82259,-1.079646 1.2853,-2.23641 l 8.27728,2.313528 q -0.79688,2.519174 -2.33923,4.678466 -1.54235,2.133586 -3.72735,3.701644 -2.15929,1.568057 -4.88411,2.467762 -2.69912,0.899705 -5.83523,0.899705 -2.64771,0 -5.06406,-0.719764 -2.41635,-0.719764 -4.52423,-2.030763 -2.08217,-1.310998 -3.80446,-3.16182 -1.69659,-1.850822 -2.90477,-4.087232 -1.20817,-2.262115 -1.87652,-4.832701 -0.66836,-2.596292 -0.66836,-5.398231 0,-4.190055 1.46524,-7.840287 1.46523,-3.675938 4.01011,-6.4007587 2.54488,-2.7505269 5.96376,-4.3185843 3.44459,-1.5937633 7.40329,-1.5937633 3.16182,0 5.32111,0.7968817 2.15929,0.7711757 4.75558,3.084703 h 5.75812 v 8.6885806 z"
       style="font-weight:bold;font-family:Arvo;-inkscape-font-specification:Arvo;stroke-width:2.18212;stroke-miterlimit:4;stroke-dasharray:none"
       id="path42486" />
    <path
       d="m 158.97487,2.3236094 h 12.00464 V 18.158419 q 1.51664,-1.388117 3.31605,-2.159293 1.82512,-0.796881 4.01012,-0.796881 4.80699,0 7.35187,2.699115 2.54488,2.673409 2.54488,7.840287 v 9.536874 h 3.90729 v 7.043405 H 180.20791 V 27.541057 q 0,-2.23641 -1.10535,-3.521703 -1.10535,-1.285292 -2.85335,-1.285292 -1.15677,0 -2.51918,0.642646 -1.36241,0.642646 -2.75052,1.876528 v 10.025285 h 3.90729 v 7.043405 h -15.91193 v -7.043405 h 4.11294 V 9.3670148 h -4.11294 z"
       style="font-weight:bold;font-family:Arvo;-inkscape-font-specification:Arvo;stroke-width:2.18212;stroke-miterlimit:4;stroke-dasharray:none"
       id="path42488" />
    <path
       d="m 201.74566,30.677172 0.0771,0.796882 q 0.28277,1.156763 0.95112,2.030762 0.69406,0.874 1.61947,1.465234 0.92541,0.591235 2.05647,0.899705 1.13106,0.282765 2.28782,0.282765 1.15676,0 2.185,-0.128529 1.05394,-0.154236 2.03076,-0.385588 0.97682,-0.257059 1.90224,-0.565529 0.92541,-0.334176 1.87652,-0.694058 l 2.82765,5.269701 q -1.46524,0.899705 -2.69912,1.542351 -1.20817,0.616941 -2.44205,1.028235 -1.23389,0.411293 -2.622,0.591234 -1.38812,0.205647 -3.23894,0.205647 -3.47029,0 -6.16941,-1.131057 -2.69911,-1.156764 -4.54993,-3.110409 -1.82512,-1.953646 -2.80194,-4.575643 -0.95112,-2.621998 -0.95112,-5.552466 0,-2.930468 1.00253,-5.501054 1.02823,-2.570586 2.87906,-4.472819 1.85082,-1.92794 4.4214,-3.033292 2.57059,-1.105352 5.7067,-1.105352 3.13612,0 5.55247,1.053941 2.44206,1.028234 4.11294,2.879056 1.67088,1.825116 2.57058,4.318584 0.89971,2.467763 0.97683,5.321113 0.0771,0.642647 0.0771,1.285293 0.0257,0.616941 -0.0257,1.285293 z m 6.1437,-9.716815 q -1.43953,0 -2.46776,0.359882 -1.00253,0.334176 -1.69659,0.951117 -0.69406,0.591235 -1.10535,1.362411 -0.4113,0.771175 -0.64265,1.619469 h 11.13064 q -0.17994,-0.874 -0.51412,-1.645175 -0.33418,-0.771176 -0.92541,-1.362411 -0.59124,-0.591235 -1.51665,-0.925411 -0.8997,-0.359882 -2.26211,-0.359882 z"
       style="font-weight:bold;font-family:Arvo;-inkscape-font-specification:Arvo;stroke-width:2.18212;stroke-miterlimit:4;stroke-dasharray:none"
       id="path42490" />
    <path
       d="m 241.52158,23.839413 q 0,-0.61694 -0.4113,-1.182469 -0.38559,-0.565529 -1.15676,-0.976823 -0.77118,-0.436999 -1.90223,-0.694058 -1.10536,-0.257058 -2.51918,-0.257058 -0.53982,0 -1.15676,0.102823 -0.61694,0.07712 -1.15677,0.30847 -0.51411,0.231353 -0.874,0.642647 -0.33417,0.385588 -0.33417,1.002528 0,0.308471 0.0771,0.591235 0.10282,0.282764 0.35988,0.539823 0.25706,0.257059 0.69406,0.488411 0.4627,0.205647 1.18247,0.334177 l 4.8327,0.951116 q 2.62199,0.514117 4.3957,1.285293 1.7737,0.771176 2.85335,1.79941 1.07965,1.028235 1.54235,2.287822 0.48841,1.259587 0.48841,2.724821 0,2.287821 -1.07964,4.010114 -1.05394,1.722292 -2.80194,2.879056 -1.7223,1.131058 -3.90729,1.696587 -2.1593,0.591235 -4.37,0.591235 -1.43953,0 -2.622,-0.179941 -1.15676,-0.179941 -2.10788,-0.488412 -0.92541,-0.30847 -1.67088,-0.719764 -0.71976,-0.436999 -1.3367,-0.951117 h -4.65276 v -7.146228 h 7.27475 v 0.154235 q 0.0257,0.74547 0.46271,1.310999 0.437,0.539823 1.13106,0.92541 0.71976,0.385588 1.61947,0.591235 0.8997,0.179941 1.90223,0.179941 2.31353,0 3.36747,-0.591234 1.05394,-0.616941 1.05394,-1.568058 0,-0.74547 -0.51412,-1.259587 -0.51412,-0.539823 -1.82511,-0.848293 l -4.93553,-1.053941 q -4.65276,-0.899705 -7.0177,-2.981879 -2.36494,-2.107881 -2.36494,-5.398231 0,-1.927939 0.89971,-3.495996 0.8997,-1.593764 2.44205,-2.699116 1.54236,-1.131057 3.59882,-1.747998 2.08218,-0.616941 4.44712,-0.616941 1.61947,0 2.87905,0.205647 1.25959,0.179941 2.26212,0.488412 1.00253,0.30847 1.748,0.745469 0.77117,0.411294 1.36241,0.874 h 4.47282 v 7.146228 z"
       style="font-weight:bold;font-family:Arvo;-inkscape-font-specification:Arvo;stroke-width:2.18212;stroke-miterlimit:4;stroke-dasharray:none"
       id="path42492" />
    <path
       d="m 269.4858,23.839413 q 0,-0.61694 -0.4113,-1.182469 -0.38559,-0.565529 -1.15676,-0.976823 -0.77118,-0.436999 -1.90223,-0.694058 -1.10536,-0.257058 -2.51918,-0.257058 -0.53982,0 -1.15676,0.102823 -0.61694,0.07712 -1.15677,0.30847 -0.51411,0.231353 -0.874,0.642647 -0.33417,0.385588 -0.33417,1.002528 0,0.308471 0.0771,0.591235 0.10282,0.282764 0.35988,0.539823 0.25706,0.257059 0.69406,0.488411 0.4627,0.205647 1.18247,0.334177 l 4.8327,0.951116 q 2.62199,0.514117 4.3957,1.285293 1.7737,0.771176 2.85335,1.79941 1.07965,1.028235 1.54235,2.287822 0.48841,1.259587 0.48841,2.724821 0,2.287821 -1.07964,4.010114 -1.05394,1.722292 -2.80194,2.879056 -1.72229,1.131058 -3.90729,1.696587 -2.1593,0.591235 -4.37,0.591235 -1.43953,0 -2.622,-0.179941 -1.15676,-0.179941 -2.10788,-0.488412 -0.92541,-0.30847 -1.67088,-0.719764 -0.71976,-0.436999 -1.3367,-0.951117 h -4.65276 v -7.146228 h 7.27476 v 0.154235 q 0.0257,0.74547 0.4627,1.310999 0.437,0.539823 1.13106,0.92541 0.71976,0.385588 1.61947,0.591235 0.8997,0.179941 1.90223,0.179941 2.31353,0 3.36747,-0.591234 1.05394,-0.616941 1.05394,-1.568058 0,-0.74547 -0.51412,-1.259587 -0.51412,-0.539823 -1.82511,-0.848293 l -4.93553,-1.053941 q -4.65276,-0.899705 -7.0177,-2.981879 -2.36494,-2.107881 -2.36494,-5.398231 0,-1.927939 0.89971,-3.495996 0.8997,-1.593764 2.44205,-2.699116 1.54236,-1.131057 3.59882,-1.747998 2.08218,-0.616941 4.44712,-0.616941 1.61947,0 2.87905,0.205647 1.25959,0.179941 2.26212,0.488412 1.00253,0.30847 1.748,0.745469 0.77117,0.411294 1.36241,0.874 h 4.47282 v 7.146228 z"
       style="font-weight:bold;font-family:Arvo;-inkscape-font-specification:Arvo;stroke-width:2.18212;stroke-miterlimit:4;stroke-dasharray:none"
       id="path42494" />
  </g>
</svg>
