<svg xmlns="http://www.w3.org/2000/svg" width="226.875" height="43.755" viewBox="0 0 60.027 11.577"><g style="fill:#fff;fill-opacity:1;fill-rule:evenodd;stroke:#000;stroke-width:1.50032;stroke-linecap:round;stroke-linejoin:round;stroke-miterlimit:4;stroke-dasharray:none;stroke-opacity:1"><path d="M10.125 38.025h27v-3h-27zm3.675-3v-4h21v4zm-1-22v-5h4v2h5v-2h5v2h5v-2h4v5" style="stroke-width:1.50032;stroke-linecap:butt;stroke-miterlimit:4;stroke-dasharray:none" transform="translate(-2.244 -2.674) scale(.36752)"/><path d="m35.8 13.025-3 3c-.717 7.216-16.936 6.571-17 0l-3-3" style="stroke-width:1.50032;stroke-miterlimit:4;stroke-dasharray:none" transform="translate(-2.244 -2.674) scale(.36752)"/><path d="M32.8 16.025v12.5h-17v-12.5" style="stroke-width:1.50032;stroke-linecap:butt;stroke-linejoin:miter;stroke-miterlimit:4;stroke-dasharray:none" transform="translate(-2.244 -2.674) scale(.36752)"/><path d="m32.8 28.525 1.5 2.5h-20l1.5-2.5" style="stroke-width:1.50032;stroke-miterlimit:4;stroke-dasharray:none" transform="translate(-2.244 -2.674) scale(.36752)"/><path d="M12.8 13.025h23" style="display:inline;fill:none;stroke:#000;stroke-width:1.50032;stroke-linejoin:miter;stroke-miterlimit:4;stroke-dasharray:none" transform="translate(-2.244 -2.674) scale(.36752)"/><g style="fill:none;fill-opacity:1;fill-rule:evenodd;stroke:#000;stroke-width:1.50032;stroke-linecap:round;stroke-linejoin:round;stroke-miterlimit:4;stroke-dasharray:none;stroke-opacity:1"><path d="M24 18c.38 2.91-5.55 7.37-8 9-3 2-2.82 4.34-5 4-1.042-.94 1.41-3.04 0-3-1 0 .19 1.23-1 2-1 0-4.003 1-4-4 0-2 6-12 6-12s.24-.55 1.057-1.786" style="fill:#fff;stroke:#000;stroke-width:1.50032;stroke-miterlimit:4;stroke-dasharray:none" transform="translate(-1.93 -2.234) scale(.36752)"/><path d="M9.5 25.5a.5.5 0 1 1-1 0 .5.5 0 1 1 1 0z" style="fill:#000;stroke:#000;stroke-width:1.50032;stroke-miterlimit:4;stroke-dasharray:none" transform="translate(-1.93 -2.234) scale(.36752)"/><path d="M15 15.5a.5 1.5 0 1 1-1 0 .5 1.5 0 1 1 1 0z" style="fill:#000;stroke:#000;stroke-width:1.50035;stroke-miterlimit:4;stroke-dasharray:none" transform="rotate(30.001 8.532 .98) scale(.36751)"/></g></g><text xml:space="preserve" x="79.284" y="115.386" style="font-style:normal;font-weight:400;font-size:10.6314px;line-height:1.25;font-family:sans-serif;letter-spacing:.00638638px;fill:#363636;fill-opacity:1;stroke:#fff;stroke-width:.42576;stroke-miterlimit:4;stroke-dasharray:none;stroke-opacity:1" transform="translate(-65.32 -105.587)"><tspan x="79.284" y="115.386" rotate="0 0 0 0 0 0 0 0" style="font-style:normal;font-variant:normal;font-weight:600;font-stretch:normal;font-family:Rubik;-inkscape-font-specification:&quot;Rubik Semi-Bold&quot;;letter-spacing:.0021288px;fill:#363636;fill-opacity:1;stroke:none;stroke-width:.42576;stroke-miterlimit:4;stroke-dasharray:none;stroke-opacity:1"><tspan style="font-style:italic;font-variant:normal;font-weight:600;font-stretch:normal;font-family:Rubik;-inkscape-font-specification:&quot;Rubik Semi-Bold Italic&quot;;fill:#996438;fill-opacity:1;stroke-width:.42576">R</tspan><tspan style="font-style:italic;font-variant:normal;font-weight:600;font-stretch:normal;font-family:Rubik;-inkscape-font-specification:&quot;Rubik Semi-Bold Italic&quot;;letter-spacing:.791914px;fill:#996438;fill-opacity:1;stroke:none;stroke-width:.42576;stroke-opacity:1">e</tspan><tspan style="fill:#4a4a4a;fill-opacity:1">C</tspan><tspan style="font-style:normal;font-variant:normal;font-weight:600;font-stretch:normal;font-family:Rubik;-inkscape-font-specification:&quot;Rubik Semi-Bold&quot;;letter-spacing:.0170304px;fill:#4a4a4a;fill-opacity:1;stroke:none;stroke-width:.42576">hess</tspan></tspan></text></svg>