<?xml version="1.0" encoding="UTF-8" standalone="no"?>
<!-- Created with Inkscape (http://www.inkscape.org/) -->

<svg
   width="60.027225mm"
   height="11.576885mm"
   viewBox="0 0 60.027225 11.576885"
   version="1.1"
   id="svg77368"
   xmlns="http://www.w3.org/2000/svg"
   xmlns:svg="http://www.w3.org/2000/svg">
  <defs
     id="defs77365" />
  <g
     id="layer1"
     transform="translate(-65.319762,-105.58656)">
    <g
       style="fill:#ffffff;fill-opacity:1;fill-rule:evenodd;stroke:#000000;stroke-width:1.50032;stroke-linecap:round;stroke-linejoin:round;stroke-miterlimit:4;stroke-dasharray:none;stroke-opacity:1"
       transform="matrix(0.36751643,0,0,0.36751643,63.075347,102.91294)"
       id="g16">
      <path
         d="m 10.125,38.025002 h 27 v -3 h -27 z"
         style="stroke-width:1.50032;stroke-linecap:butt;stroke-miterlimit:4;stroke-dasharray:none"
         id="path2" />
      <path
         d="m 13.800003,35.025002 v -4 h 21 v 4 z"
         style="stroke-width:1.50032;stroke-linecap:butt;stroke-miterlimit:4;stroke-dasharray:none"
         id="path4" />
      <path
         d="M 12.800003,13.025002 V 8.0250015 h 4 v 2.0000005 h 5 V 8.0250015 h 5 v 2.0000005 h 5 V 8.0250015 h 4 v 5.0000005"
         style="stroke-width:1.50032;stroke-linecap:butt;stroke-miterlimit:4;stroke-dasharray:none"
         id="path6" />
      <path
         d="m 35.800003,13.025002 -3,3 c -0.71693,7.215754 -16.936402,6.571163 -17,0 l -3,-3"
         id="path8"
         style="stroke-width:1.50032;stroke-miterlimit:4;stroke-dasharray:none" />
      <path
         d="m 32.800003,16.025002 v 12.5 h -17 v -12.5"
         style="stroke-width:1.50032;stroke-linecap:butt;stroke-linejoin:miter;stroke-miterlimit:4;stroke-dasharray:none"
         id="path10" />
      <path
         d="m 32.800003,28.525002 1.5,2.5 h -20 l 1.5,-2.5"
         id="path12"
         style="stroke-width:1.50032;stroke-miterlimit:4;stroke-dasharray:none" />
      <path
         d="m 12.800003,13.025002 h 23"
         style="display:inline;fill:none;stroke:#000000;stroke-width:1.50032;stroke-linejoin:miter;stroke-miterlimit:4;stroke-dasharray:none"
         id="path14" />
      <g
         style="fill:none;fill-opacity:1;fill-rule:evenodd;stroke:#000000;stroke-width:1.50032;stroke-linecap:round;stroke-linejoin:round;stroke-miterlimit:4;stroke-dasharray:none;stroke-opacity:1"
         transform="translate(0.85714002,1.1964315)"
         id="g10">
        <path
           d="m 24,18 c 0.38,2.91 -5.55,7.37 -8,9 -3,2 -2.82,4.34 -5,4 -1.042,-0.94 1.41,-3.04 0,-3 -1,0 0.19,1.23 -1,2 -1,0 -4.003,1 -4,-4 0,-2 6,-12 6,-12 0,0 0.240002,-0.55 1.057147,-1.785714"
           style="fill:#ffffff;stroke:#000000;stroke-width:1.50032;stroke-miterlimit:4;stroke-dasharray:none"
           id="path4-3" />
        <path
           d="m 9.5,25.5 a 0.5,0.5 0 1 1 -1,0 0.5,0.5 0 1 1 1,0 z"
           style="fill:#000000;stroke:#000000;stroke-width:1.50032;stroke-miterlimit:4;stroke-dasharray:none"
           id="path6-6" />
        <path
           d="m 15,15.5 a 0.5,1.5 0 1 1 -1,0 0.5,1.5 0 1 1 1,0 z"
           style="fill:#000000;stroke:#000000;stroke-width:1.50035;stroke-miterlimit:4;stroke-dasharray:none"
           id="path8-7"
           transform="matrix(0.866,0.5,-0.5,0.866,9.693,-5.173)" />
      </g>
    </g>
    <text
       xml:space="preserve"
       style="font-style:normal;font-weight:normal;font-size:10.6314px;line-height:1.25;font-family:sans-serif;letter-spacing:0.00638638px;fill:#363636;fill-opacity:1;stroke:#ffffff;stroke-width:0.42576;stroke-miterlimit:4;stroke-dasharray:none;stroke-opacity:1"
       x="79.28418"
       y="115.38599"
       id="text3114-2"><tspan
         id="tspan3112-2"
         x="79.28418"
         y="115.38599"
         rotate="0 0 0 0 0 0 0 0"
         style="font-style:normal;font-variant:normal;font-weight:600;font-stretch:normal;font-family:Rubik;-inkscape-font-specification:'Rubik Semi-Bold';letter-spacing:0.0021288px;fill:#363636;fill-opacity:1;stroke:none;stroke-width:0.42576;stroke-miterlimit:4;stroke-dasharray:none;stroke-opacity:1"><tspan
           style="font-style:italic;font-variant:normal;font-weight:600;font-stretch:normal;font-family:Rubik;-inkscape-font-specification:'Rubik Semi-Bold Italic';fill:#996438;fill-opacity:1;stroke-width:0.42576"
           id="tspan69000">R</tspan><tspan
           style="font-style:italic;font-variant:normal;font-weight:600;font-stretch:normal;font-family:Rubik;-inkscape-font-specification:'Rubik Semi-Bold Italic';letter-spacing:0.791914px;fill:#996438;fill-opacity:1;stroke:none;stroke-width:0.42576;stroke-opacity:1"
           id="tspan43094">e</tspan><tspan
           style="fill:#4a4a4a;fill-opacity:1"
           id="tspan99069">C</tspan><tspan
           style="font-style:normal;font-variant:normal;font-weight:600;font-stretch:normal;font-family:Rubik;-inkscape-font-specification:'Rubik Semi-Bold';letter-spacing:0.0170304px;fill:#4a4a4a;fill-opacity:1;stroke:none;stroke-width:0.42576"
           id="tspan49926">hess</tspan></tspan></text>
  </g>
</svg>
