<svg xmlns="http://www.w3.org/2000/svg" width="1792" height="1792"><path d="M894.453 796.977h652.65q10.803 60.314 10.803 115.227 0 195.345-81.919 348.83-81.919 153.486-233.604 239.905-151.685 86.42-347.93 86.42-141.332 0-269.162-54.462-127.83-54.463-220.55-147.184-92.722-92.721-147.185-220.55-54.462-127.83-54.462-269.163 0-141.333 54.462-269.162 54.463-127.83 147.184-220.551 92.722-92.721 220.551-147.184 127.83-54.462 269.162-54.462 270.063 0 463.607 180.941l-188.143 180.942Q1059.19 459.399 894.453 459.399q-116.127 0-214.7 58.514-98.572 58.513-156.185 158.886Q465.954 777.173 465.954 896t57.614 219.2q57.613 100.374 156.186 158.887 98.572 58.514 214.7 58.514 78.317 0 144.032-21.605 65.716-21.605 108.025-54.013 42.31-32.407 73.817-73.817 31.508-41.41 46.361-78.318 14.853-36.908 20.255-70.216h-392.49Z" style="stroke-width:.900208"/></svg>