<?xml version="1.0" encoding="UTF-8" standalone="no"?>
<svg
   height="1792"
   viewBox="0 0 1792 1792"
   width="1792"
   version="1.1"
   id="svg4"
   xmlns="http://www.w3.org/2000/svg"
   xmlns:svg="http://www.w3.org/2000/svg">
  <defs
     id="defs8" />
  <path
     d="m 894.45322,796.97716 h 652.65058 q 10.8025,60.31391 10.8025,115.22658 0,195.34506 -81.9189,348.83046 -81.9189,153.4854 -233.6039,239.9053 -151.685,86.42 -347.93028,86.42 -141.3326,0 -269.16209,-54.4626 Q 497.46165,1478.4343 404.74026,1385.713 312.01887,1292.9916 257.55631,1165.1621 203.09375,1037.3326 203.09375,896 q 0,-141.3326 54.46256,-269.16208 54.46256,-127.82949 147.18395,-220.55088 92.72139,-92.72138 220.55087,-147.18395 127.82949,-54.46256 269.16209,-54.46256 270.06228,0 463.60698,180.94174 L 1169.9168,566.524 Q 1059.1912,459.39929 894.45322,459.39929 q -116.12679,0 -214.69952,58.5135 -98.57274,58.5135 -156.18603,158.88665 Q 465.95438,777.17259 465.95438,896 q 0,118.8274 57.61329,219.2006 57.61329,100.3731 156.18603,158.8866 98.57273,58.5135 214.69952,58.5135 78.31806,0 144.03318,-21.605 65.7152,-21.605 108.025,-54.0124 42.3097,-32.4075 73.817,-73.8171 31.5073,-41.4095 46.3607,-78.318 14.8534,-36.9085 20.2547,-70.2162 H 894.45322 Z"
     id="path2"
     style="stroke-width:0.900208" />
</svg>
