<?xml version="1.0" encoding="UTF-8" standalone="no"?>
<svg
   fill="none"
   viewBox="0 0 24 24"
   stroke-width="1.5"
   stroke="currentColor"
   class="w-6 h-6"
   version="1.1"
   id="svg4"
   xmlns="http://www.w3.org/2000/svg"
   xmlns:svg="http://www.w3.org/2000/svg">
  <defs
     id="defs8" />
  <path
     stroke-linecap="round"
     stroke-linejoin="round"
     d="m 4.33333,22.541668 h 15.333334 c 1.587819,0 2.875,-1.287182 2.875,-2.875001 V 4.3333305 c 0,-1.5878189 -1.287181,-2.8750005 -2.875,-2.8750005 H 4.33333 c -1.5878187,0 -2.875,1.2871816 -2.875,2.8750005 V 19.666667 c 0,1.587819 1.2871813,2.875001 2.875,2.875001 z"
     id="path2"
     style="stroke-width:0.8;stroke-miterlimit:4;stroke-dasharray:none" />
  <path
     stroke-linecap="round"
     stroke-linejoin="round"
     d="m 14.088456,17.458972 2.464871,2.451374 c 0.255246,0.253848 0.669081,0.253848 0.924327,0 l 2.46487,-2.451374 c 0.255246,-0.253849 0.255246,-0.665418 0,-0.919267 l -2.46487,-2.451374 c -0.255247,-0.253848 -0.669081,-0.253848 -0.924327,0 l -2.464871,2.451374 c -0.255246,0.253849 -0.255246,0.665418 0,0.919267 z"
     id="path2-3"
     style="stroke-width:0.8;stroke-miterlimit:4;stroke-dasharray:none" />
</svg>
