<?xml version="1.0" encoding="UTF-8" standalone="no"?>
<svg
   fill="none"
   viewBox="0 0 24 24"
   stroke-width="1.5"
   stroke="currentColor"
   class="w-6 h-6"
   version="1.1"
   id="svg4"
   xmlns="http://www.w3.org/2000/svg"
   xmlns:svg="http://www.w3.org/2000/svg">
  <defs
     id="defs8" />
  <path
     stroke-linecap="round"
     stroke-linejoin="round"
     d="m 4.33333,22.541668 h 15.333334 c 1.587819,0 2.875,-1.287182 2.875,-2.875001 V 4.3333305 c 0,-1.5878189 -1.287181,-2.8750005 -2.875,-2.8750005 H 4.33333 c -1.5878187,0 -2.875,1.2871816 -2.875,2.8750005 V 19.666667 c 0,1.587819 1.2871813,2.875001 2.875,2.875001 z"
     id="path2"
     style="stroke-width:0.8;stroke-miterlimit:4;stroke-dasharray:none" />
  <path
     stroke-linecap="round"
     stroke-linejoin="round"
     d="m 6.2950189,12.899329 4.8041951,4.803165 c 0.497491,0.497384 1.304083,0.497384 1.801575,-1e-6 l 4.804194,-4.803164 c 0.49749,-0.497384 0.49749,-1.303803 0,-1.801188 L 12.900788,6.294977 c -0.497492,-0.497384 -1.304083,-0.4973842 -1.801574,-3e-7 L 6.2950194,11.09814 c -0.4974913,0.497385 -0.4974912,1.303805 -5e-7,1.801189 z"
     id="path2-3"
     style="stroke-width:0.8;stroke-miterlimit:4;stroke-dasharray:none" />
</svg>
