<svg xmlns="http://www.w3.org/2000/svg" width="24" height="24" fill="none" stroke="currentColor" stroke-linecap="round" stroke-linejoin="round" stroke-width="1.6" class="icon icon-tabler icon-tabler-number-1"><defs><mask id="a" maskUnits="userSpaceOnUse"><path d="M.014.535h23.972v22.993H.014Z" style="fill:#fff;fill-opacity:1"/><path d="M12.153 16.759V8.604l-2.549 2.548"/></mask></defs><path stroke="none" d="M0 0h24v24H0z"/><path fill="currentColor" stroke="none" d="m8.25 7.873-6.38.925-.113.023a1 1 0 0 0-.44 1.684l4.622 4.499-1.09 6.355-.013.11a1 1 0 0 0 1.464.944l5.706-3 5.693 3 .1.046a1 1 0 0 0 1.352-1.1l-1.09-6.355 4.623-4.5.078-.085a1 1 0 0 0-.633-1.62l-6.38-.926-2.852-5.78a1 1 0 0 0-1.794 0z" mask="url(#a)"/></svg>