<svg xmlns="http://www.w3.org/2000/svg" fill="none" stroke="currentColor" stroke-width="1.5" class="w-6 h-6" viewBox="0 0 24 24"><path stroke-linecap="round" stroke-linejoin="round" d="M4.333 22.542h15.334a2.875 2.875 0 0 0 2.875-2.875V4.333a2.875 2.875 0 0 0-2.875-2.875H4.333a2.875 2.875 0 0 0-2.875 2.875v15.334a2.875 2.875 0 0 0 2.875 2.875z" style="stroke-width:.8;stroke-miterlimit:4;stroke-dasharray:none"/><path stroke-linecap="round" stroke-linejoin="round" d="m6.295 12.9 4.804 4.802a1.274 1.274 0 0 0 1.802 0l4.804-4.803a1.273 1.273 0 0 0 0-1.8l-4.804-4.804a1.274 1.274 0 0 0-1.802 0l-4.804 4.803a1.273 1.273 0 0 0 0 1.801z" style="stroke-width:.8;stroke-miterlimit:4;stroke-dasharray:none"/></svg>