<svg xmlns="http://www.w3.org/2000/svg" fill="none" stroke="currentColor" stroke-width="1.5" class="w-6 h-6" viewBox="0 0 24 24"><path stroke-linecap="round" stroke-linejoin="round" d="M4.333 22.542h15.334a2.875 2.875 0 0 0 2.875-2.875V4.333a2.875 2.875 0 0 0-2.875-2.875H4.333a2.875 2.875 0 0 0-2.875 2.875v15.334a2.875 2.875 0 0 0 2.875 2.875z" style="stroke-width:.8;stroke-miterlimit:4;stroke-dasharray:none"/><path stroke-linecap="round" stroke-linejoin="round" d="m14.088 17.459 2.465 2.451c.256.254.67.254.925 0l2.465-2.451a.648.648 0 0 0 0-.92l-2.465-2.45a.656.656 0 0 0-.925 0l-2.465 2.45a.648.648 0 0 0 0 .92z" style="stroke-width:.8;stroke-miterlimit:4;stroke-dasharray:none"/></svg>