<?xml version="1.0" standalone="no"?>
<!DOCTYPE svg PUBLIC "-//W3C//DTD SVG 20010904//EN"
 "http://www.w3.org/TR/2001/REC-SVG-20010904/DTD/svg10.dtd">
<svg version="1.0" xmlns="http://www.w3.org/2000/svg"
 width="700.000000pt" height="700.000000pt" viewBox="0 0 700.000000 700.000000"
 preserveAspectRatio="xMidYMid meet">
<metadata>
Created by potrace 1.14, written by Peter Selinger 2001-2017
</metadata>
<g transform="translate(0.000000,700.000000) scale(0.100000,-0.100000)"
fill="#000000" stroke="none">
<path d="M1412 6873 c-18 -9 -43 -30 -55 -47 -22 -31 -22 -32 -27 -601 -3
-313 -1 -588 3 -610 6 -30 23 -56 69 -101 l60 -62 -48 -88 c-26 -49 -100 -179
-165 -289 -363 -621 -613 -1077 -838 -1525 -309 -618 -381 -826 -366 -1064 22
-366 98 -587 255 -746 83 -83 153 -125 270 -162 70 -21 91 -23 291 -22 l217 1
11 -38 c15 -51 81 -132 123 -152 51 -24 180 -32 261 -15 l67 15 0 -153 0 -153
-344 -3 c-330 -3 -346 -4 -372 -24 -15 -11 -37 -33 -48 -48 -20 -27 -21 -39
-21 -411 0 -372 1 -384 21 -411 11 -15 33 -37 48 -48 l27 -21 2965 -3 c2934
-2 2965 -2 3003 18 22 10 50 36 62 57 l24 38 0 365 c0 350 -1 367 -21 405 -13
25 -36 47 -64 62 -41 22 -54 23 -232 23 l-188 0 0 371 c0 322 -2 376 -16 405
-21 44 -62 73 -116 82 l-43 7 -127 210 -127 210 -1 1295 0 1295 319 320 c268
269 321 326 326 355 3 19 5 292 3 607 -3 562 -3 572 -24 600 -11 15 -36 38
-54 51 l-33 22 -482 0 -482 0 -34 -23 c-19 -12 -44 -42 -56 -67 -21 -40 -23
-59 -23 -192 l0 -148 -377 2 -378 3 -5 165 c-6 183 -12 203 -73 240 -31 19
-55 20 -623 20 l-591 0 -33 -22 c-70 -48 -75 -62 -78 -244 l-4 -164 -376 2
-377 3 -5 165 c-5 150 -7 168 -27 196 -46 65 -41 64 -565 64 -415 0 -477 -2
-506 -17z m778 -450 c0 -169 13 -212 71 -254 l34 -24 584 -3 c568 -2 585 -2
626 18 73 35 85 70 85 254 l0 156 380 0 380 0 0 -147 c0 -169 13 -212 71 -254
l34 -24 585 -3 586 -2 43 23 c72 37 81 65 81 249 l0 158 275 0 275 0 -2 -377
-3 -378 -2322 -3 -2323 -2 0 380 0 380 270 0 270 0 0 -147z m3683 -1125 c-105
-106 -198 -207 -207 -225 -14 -29 -16 -160 -16 -1318 0 -1019 -3 -1287 -12
-1290 -7 -3 -653 -4 -1436 -3 l-1423 3 188 146 c267 207 462 377 658 574 393
392 587 701 626 993 14 104 4 193 -28 237 -24 32 -90 65 -134 65 -90 -1 -165
-90 -155 -185 16 -147 -86 -364 -293 -620 -84 -104 -308 -332 -462 -469 -239
-214 -519 -432 -814 -636 -339 -234 -440 -330 -687 -656 -142 -187 -205 -244
-269 -244 -26 0 -24 7 51 175 73 164 80 187 80 249 -1 86 -44 158 -121 198
-64 33 -194 33 -262 -1 -93 -45 -126 -116 -127 -272 0 -68 -4 -111 -12 -122
-11 -13 -38 -18 -138 -23 -193 -10 -279 14 -357 99 -100 108 -153 302 -153
556 0 107 3 122 40 232 126 372 519 1124 1166 2236 49 84 108 187 132 230 23
43 69 120 102 171 l59 92 2098 0 2098 0 -192 -192z m-219 -3029 c3 -17 46 -98
96 -181 49 -82 90 -153 90 -159 0 -5 -707 -9 -1870 -9 -1028 0 -1870 3 -1870
6 0 12 118 128 192 190 42 35 116 91 164 124 l88 60 1552 0 1552 0 6 -31z
m426 -939 l0 -270 -2105 0 -2105 0 0 270 0 270 2105 0 2105 0 0 -270z m500
-755 l0 -165 -2755 0 -2755 0 0 165 0 165 2755 0 2755 0 0 -165z"/>
<path d="M2137 5299 c-183 -41 -406 -350 -441 -614 -21 -149 70 -268 203 -269
84 0 140 30 235 127 176 180 287 457 243 607 -32 111 -132 172 -240 149z"/>
<path d="M797 2959 c-130 -31 -211 -134 -210 -264 1 -75 20 -121 73 -179 79
-86 207 -109 312 -56 88 44 140 124 146 226 11 171 -157 314 -321 273z"/>
</g>
</svg>
