<svg xmlns="http://www.w3.org/2000/svg" width="24" height="24" fill="none" stroke="currentColor" stroke-linecap="round" stroke-linejoin="round" class="icon icon-tabler icon-tabler-chess-king"><defs><clipPath id="b" clipPathUnits="userSpaceOnUse"><path d="M24.533 11.052h12v24h-12z" style="fill:#000;fill-opacity:1;stroke:none;stroke-width:.71528;stroke-linejoin:round;stroke-opacity:1"/></clipPath><clipPath id="a" clipPathUnits="userSpaceOnUse"><path d="M0 0h12v24H0z" style="fill:#000;fill-opacity:1;stroke:none;stroke-width:.8;stroke-linejoin:round;stroke-opacity:1"/></clipPath></defs><path stroke="none" d="M0 0h12v24H0z" style="fill:#fff;fill-opacity:1;stroke:none;stroke-width:.565685;stroke-linejoin:round;stroke-opacity:1"/><path stroke="none" d="M12 0h12v24H12z" style="fill:#0a0a0a;fill-opacity:1;stroke:none;stroke-width:.565685;stroke-linejoin:round;stroke-opacity:1"/><g clip-path="url(#a)" style="stroke:#363636;stroke-opacity:1"><path d="m8 16-1.447.724a1 1 0 0 0-.553.894V20h12v-2.382a1 1 0 0 0-.553-.894L16 16Zm.5 0a3.5 3.5 0 1 1 3.163-5h.674a3.5 3.5 0 1 1 3.163 5zM9 6h6m-3-3v8" style="stroke:#363636;stroke-opacity:1"/></g><g clip-path="url(#b)" style="stroke:#ededed;stroke-opacity:1" transform="translate(-12.533 -11.052)"><path d="m20.533 27.052-1.447.724a1 1 0 0 0-.553.894v2.382h12V28.67a1 1 0 0 0-.553-.894l-1.447-.724zm.5 0a3.5 3.5 0 1 1 3.163-5h.674a3.5 3.5 0 1 1 3.163 5zm.5-10h6m-3-3v8" style="stroke:#ededed;stroke-opacity:1"/></g></svg>