<svg xmlns="http://www.w3.org/2000/svg" width="45" height="45"><g style="opacity:1;fill:#fff;fill-opacity:1;fill-rule:evenodd;stroke:#000;stroke-width:1.5;stroke-linecap:round;stroke-linejoin:round;stroke-miterlimit:4;stroke-dasharray:none;stroke-opacity:1"><path d="M10.125 38.025h27v-3h-27zm3.675-3v-4h21v4zm-1-22v-5h4v2h5v-2h5v2h5v-2h4v5" style="stroke-linecap:butt" transform="translate(-8.212 -9.429) scale(1.38904)"/><path stroke-width="2.084" d="m41.515 8.663-4.167 4.167c-.996 10.023-23.525 9.128-23.614 0L9.567 8.663"/><path d="M32.8 16.025v12.5h-17v-12.5" style="stroke-linecap:butt;stroke-linejoin:miter" transform="translate(-8.212 -9.429) scale(1.38904)"/><path stroke-width="2.084" d="m37.348 30.193 2.084 3.473H11.65l2.083-3.473"/><path d="M12.8 13.025h23" style="display:inline;fill:none;stroke:#000;stroke-linejoin:miter" transform="translate(-8.212 -9.429) scale(1.38904)"/><g style="fill:none;fill-opacity:1;fill-rule:evenodd;stroke:#000;stroke-width:1.5;stroke-linecap:round;stroke-linejoin:round;stroke-miterlimit:4;stroke-dasharray:none;stroke-opacity:1"><path d="M24 18c.38 2.91-5.55 7.37-8 9-3 2-2.82 4.34-5 4-1.042-.94 1.41-3.04 0-3-1 0 .19 1.23-1 2-1 0-4.003 1-4-4 0-2 6-12 6-12s.24-.55 1.057-1.786" style="fill:#fff;stroke:#000" transform="translate(-7.022 -7.767) scale(1.38904)"/><path d="M9.5 25.5a.5.5 0 1 1-1 0 .5.5 0 1 1 1 0z" style="fill:#000;stroke:#000" transform="translate(-7.022 -7.767) scale(1.38904)"/><path d="M15 15.5a.5 1.5 0 1 1-1 0 .5 1.5 0 1 1 1 0z" style="fill:#000;stroke:#000" transform="rotate(30.001 31.122 4.544) scale(1.38901)"/></g></g></svg>