<svg xmlns="http://www.w3.org/2000/svg" width="45" height="45"><g style="opacity:1;fill:#000;fill-opacity:1;fill-rule:evenodd;stroke:#000;stroke-width:1.5;stroke-linecap:round;stroke-linejoin:round;stroke-miterlimit:4;stroke-dasharray:none;stroke-opacity:1"><path d="M10.125 38.025h27v-3h-27zm3.675-3v-4h21v4zm-1-22v-5h4v2h5v-2h5v2h5v-2h4v5" style="display:inline;fill:#000;fill-opacity:1;stroke:#000;stroke-linecap:butt;stroke-opacity:1" transform="translate(-8.212 -9.429) scale(1.38904)"/><path d="m35.8 13.025-3 3c-.717 7.216-16.936 6.571-17 0l-3-3" style="display:inline;fill:#000;fill-opacity:1;stroke:#000;stroke-opacity:1" transform="translate(-8.212 -9.429) scale(1.38904)"/><path d="M32.8 16.025v12.5h-17v-12.5" style="display:inline;fill:#000;fill-opacity:1;stroke:#000;stroke-linecap:butt;stroke-linejoin:miter;stroke-opacity:1" transform="translate(-8.212 -9.429) scale(1.38904)"/><path d="m32.8 28.525 1.5 2.5h-20l1.5-2.5" style="display:inline;fill:#000;fill-opacity:1;stroke:#000;stroke-opacity:1" transform="translate(-8.212 -9.429) scale(1.38904)"/><g style="display:inline;fill:#000;fill-opacity:1;fill-rule:evenodd;stroke:#000;stroke-width:1.5;stroke-linecap:round;stroke-linejoin:round;stroke-miterlimit:4;stroke-dasharray:none;stroke-opacity:1"><path d="M24 18c.38 2.91-5.55 7.37-8 9-3 2-2.82 4.34-5 4-1.042-.94 1.41-3.04 0-3-1 0 .19 1.23-1 2-1 0-4.003 1-4-4 0-2 6-12 6-12s.24-.55 1.057-1.786" style="fill:#000;fill-opacity:1;stroke:#000;stroke-opacity:1" transform="translate(-7.022 -7.767) scale(1.38904)"/></g></g><g style="fill:#000;fill-opacity:1;fill-rule:evenodd;stroke:#fff;stroke-width:1.5;stroke-linecap:round;stroke-linejoin:round;stroke-miterlimit:4;stroke-dasharray:none;stroke-opacity:1"><g style="fill:#000;fill-opacity:1;fill-rule:evenodd;stroke:#fff;stroke-width:1.5;stroke-linecap:round;stroke-linejoin:round;stroke-miterlimit:4;stroke-dasharray:none;stroke-opacity:1"><path d="M9.5 25.5a.5.5 0 1 1-1 0 .5.5 0 1 1 1 0z" style="fill:#fff;fill-opacity:1;stroke:#fff;stroke-opacity:1" transform="translate(-7.022 -7.767) scale(1.38904)"/><path d="M15 15.5a.5 1.5 0 1 1-1 0 .5 1.5 0 1 1 1 0z" style="fill:#000;fill-opacity:1;stroke:#fff;stroke-opacity:1" transform="rotate(30.001 31.122 4.544) scale(1.38901)"/></g><path d="M14.182 34.491h20.41v0m-20.005-3.888H33.62M16.639 28.66h16.01M13.21 13.595h22.354" style="fill:none;fill-opacity:1;fill-rule:evenodd;stroke:#fff;stroke-width:.971891;stroke-linecap:round;stroke-linejoin:miter;stroke-miterlimit:4;stroke-dasharray:none;stroke-opacity:1" transform="translate(-8.212 -9.429) scale(1.38904)"/></g><g style="fill:none;fill-opacity:1;fill-rule:evenodd;stroke:#000;stroke-width:1.5;stroke-linecap:round;stroke-linejoin:round;stroke-miterlimit:4;stroke-dasharray:none;stroke-opacity:1"><path d="M50.727 12.709c.38 2.91-5.55 7.37-8 9-1.92 1.838-1.062 1.046-2.297 2.272" style="fill:none;fill-opacity:1;stroke:#fff;stroke-opacity:1;stroke-width:1.14035716;stroke-miterlimit:4;stroke-dasharray:none" transform="translate(-44.147 -.417) scale(1.38904)"/></g></svg>