<svg xmlns="http://www.w3.org/2000/svg" width="226.875" height="43.755" viewBox="0 0 60.027 11.577"><g style="fill:#fff;fill-opacity:1;fill-rule:evenodd;stroke:#000;stroke-width:1.50032;stroke-linecap:round;stroke-linejoin:round;stroke-miterlimit:4;stroke-dasharray:none;stroke-opacity:1"><path d="M10.125 38.025h27v-3h-27zm3.675-3v-4h21v4zm-1-22v-5h4v2h5v-2h5v2h5v-2h4v5" style="stroke-width:1.50032;stroke-linecap:butt;stroke-miterlimit:4;stroke-dasharray:none" transform="translate(-2.244 -2.674) scale(.36752)"/><path d="m35.8 13.025-3 3c-.717 7.216-16.936 6.571-17 0l-3-3" style="stroke-width:1.50032;stroke-miterlimit:4;stroke-dasharray:none" transform="translate(-2.244 -2.674) scale(.36752)"/><path d="M32.8 16.025v12.5h-17v-12.5" style="stroke-width:1.50032;stroke-linecap:butt;stroke-linejoin:miter;stroke-miterlimit:4;stroke-dasharray:none" transform="translate(-2.244 -2.674) scale(.36752)"/><path d="m32.8 28.525 1.5 2.5h-20l1.5-2.5" style="stroke-width:1.50032;stroke-miterlimit:4;stroke-dasharray:none" transform="translate(-2.244 -2.674) scale(.36752)"/><path d="M12.8 13.025h23" style="display:inline;fill:none;stroke:#000;stroke-width:1.50032;stroke-linejoin:miter;stroke-miterlimit:4;stroke-dasharray:none" transform="translate(-2.244 -2.674) scale(.36752)"/><g style="fill:none;fill-opacity:1;fill-rule:evenodd;stroke:#000;stroke-width:1.50032;stroke-linecap:round;stroke-linejoin:round;stroke-miterlimit:4;stroke-dasharray:none;stroke-opacity:1"><path d="M24 18c.38 2.91-5.55 7.37-8 9-3 2-2.82 4.34-5 4-1.042-.94 1.41-3.04 0-3-1 0 .19 1.23-1 2-1 0-4.003 1-4-4 0-2 6-12 6-12s.24-.55 1.057-1.786" style="fill:#fff;stroke:#000;stroke-width:1.50032;stroke-miterlimit:4;stroke-dasharray:none" transform="translate(-1.93 -2.234) scale(.36752)"/><path d="M9.5 25.5a.5.5 0 1 1-1 0 .5.5 0 1 1 1 0z" style="fill:#000;stroke:#000;stroke-width:1.50032;stroke-miterlimit:4;stroke-dasharray:none" transform="translate(-1.93 -2.234) scale(.36752)"/><path d="M15 15.5a.5 1.5 0 1 1-1 0 .5 1.5 0 1 1 1 0z" style="fill:#000;stroke:#000;stroke-width:1.50035;stroke-miterlimit:4;stroke-dasharray:none" transform="rotate(30.001 8.532 .98) scale(.36751)"/></g></g><g aria-label="ReChess" style="font-size:10.6314px;line-height:1.25;letter-spacing:.00638638px;stroke:none;stroke-width:.42576"><path d="M79.816 115.386q-.117 0-.17-.074-.054-.075-.032-.192l1.456-6.91q.021-.117.117-.192.096-.074.213-.074h2.817q1.329 0 1.956.617.638.606.394 1.754-.16.776-.649 1.297-.478.52-1.159.776l.936 2.658q.01.032.01.053.011.021 0 .064-.02.085-.106.16-.074.063-.17.063h-1.18q-.192 0-.266-.096-.064-.106-.096-.191l-.776-2.435h-1.286l-.532 2.456q-.02.117-.117.192-.085.074-.202.074zm2.285-4.072h1.372q.574 0 .914-.266.34-.265.447-.744.095-.478-.128-.755-.213-.276-.797-.276h-1.372z" style="font-style:italic;font-weight:600;font-family:Rubik;-inkscape-font-specification:&quot;Rubik Semi-Bold Italic&quot;;fill:#e28940;stroke:none" transform="translate(-65.32 -105.587)"/><path d="M89.13 115.492q-.807 0-1.35-.297-.531-.309-.733-.904-.202-.595-.053-1.457.021-.085.042-.223.032-.149.064-.234.213-.818.66-1.403.456-.595 1.116-.904.67-.319 1.467-.319.893 0 1.403.372.521.362.691 1 .17.627 0 1.446l-.042.244q-.022.107-.117.18-.096.075-.213.075H88.6q0 .01-.01.043 0 .021-.011.042-.053.34 0 .628.053.276.244.446.202.17.521.17.256 0 .447-.074.191-.075.319-.18.138-.107.213-.182.116-.106.18-.127.064-.032.192-.032H91.8q.107 0 .16.064.053.053.021.16-.043.17-.266.424-.212.245-.585.49-.372.233-.882.393-.5.16-1.116.16zm-.318-3.391h2.084v-.021q.095-.383.02-.66-.063-.287-.265-.446-.202-.16-.531-.16-.33 0-.596.16-.266.16-.446.446-.17.277-.266.66z" style="font-style:italic;font-weight:600;font-family:Rubik;-inkscape-font-specification:&quot;Rubik Semi-Bold Italic&quot;;letter-spacing:.791914px;fill:#e28940;stroke:none" transform="translate(-65.32 -105.587)"/><path d="M97.269 115.492q-1 0-1.701-.33-.691-.34-1.074-.977-.383-.649-.425-1.574-.01-.436-.01-.935 0-.5.01-.957.042-.914.425-1.552.394-.649 1.095-.99.702-.34 1.68-.34.712 0 1.297.181t1.01.521q.425.34.66.798.233.457.254 1.02 0 .096-.074.16-.064.064-.16.064h-1.212q-.127 0-.202-.064-.074-.064-.116-.213-.16-.627-.532-.86-.372-.235-.925-.235-.66 0-1.042.362-.383.361-.414 1.201-.032.872 0 1.786.031.84.414 1.201.383.362 1.042.362.553 0 .925-.234.383-.245.532-.861.042-.16.116-.213.075-.064.202-.064h1.212q.096 0 .16.064.074.064.074.16-.021.563-.255 1.02-.234.457-.659.798-.425.34-1.01.52-.585.181-1.297.181z" style="fill:#ededed;stroke:none" transform="translate(-65.32 -105.587)"/><path d="M101.832 115.386q-.117 0-.191-.074-.075-.075-.075-.192v-7.016q0-.117.075-.192.074-.074.191-.074h1.148q.107 0 .18.074.075.075.075.192v2.392q.287-.34.702-.543.415-.202 1-.202.627 0 1.105.287.49.277.765.82.277.53.277 1.296v2.966q0 .117-.074.192-.075.074-.192.074h-1.159q-.106 0-.18-.074-.075-.075-.075-.192v-2.902q0-.564-.276-.872-.277-.319-.787-.319-.5 0-.808.32-.298.307-.298.87v2.903q0 .117-.074.192-.074.074-.18.074zm9.011.106q-1.222 0-1.945-.68-.713-.68-.755-1.978v-.457q.042-.818.372-1.403.33-.595.925-.904.595-.319 1.393-.319.893 0 1.488.372.606.362.904 1 .308.627.308 1.446v.244q0 .107-.085.18-.074.075-.18.075h-3.477v.085q.01.34.127.628.128.276.351.446.234.17.553.17.266 0 .436-.074.17-.075.276-.18.117-.107.17-.182.096-.106.15-.127.063-.032.19-.032h1.106q.107 0 .17.064.075.053.064.16-.01.17-.18.424-.16.245-.479.49-.319.233-.797.393-.468.16-1.085.16zm-1.052-3.391h2.083v-.021q0-.383-.127-.66-.117-.287-.351-.446-.234-.16-.563-.16-.33 0-.564.16-.234.16-.361.446-.117.277-.117.66zm7.002 3.391q-.66 0-1.138-.149-.468-.159-.765-.382-.288-.224-.436-.447-.139-.234-.15-.393-.01-.117.075-.192.085-.074.17-.074h1.032q.031 0 .063.01.032.011.064.054.138.096.287.223.149.117.34.202.202.085.5.085.35 0 .595-.138.245-.149.245-.415 0-.191-.117-.319-.106-.127-.415-.233-.308-.107-.914-.234-.574-.128-.978-.34-.404-.213-.606-.532-.202-.33-.202-.787 0-.414.255-.797.266-.383.776-.627.51-.256 1.276-.256.585 0 1.02.15.447.137.745.36.298.213.446.447.16.224.17.394.011.106-.063.18-.075.075-.17.075h-.947q-.053 0-.095-.01-.043-.022-.075-.054-.127-.085-.266-.191-.127-.117-.308-.202-.18-.086-.468-.086-.35 0-.542.16-.18.149-.18.383 0 .149.095.276.096.128.394.234.297.106.903.223.723.128 1.148.383.426.255.606.595.192.33.192.713 0 .5-.298.893-.298.382-.872.606-.563.212-1.392.212zm5.779 0q-.66 0-1.138-.149-.468-.159-.765-.382-.287-.224-.436-.447-.138-.234-.149-.393-.01-.117.074-.192.086-.074.17-.074h1.032q.032 0 .064.01.031.011.063.054.139.096.287.223.15.117.34.202.203.085.5.085.351 0 .596-.138.244-.149.244-.415 0-.191-.117-.319-.106-.127-.414-.233-.309-.107-.915-.234-.574-.128-.978-.34-.404-.213-.606-.532-.202-.33-.202-.787 0-.414.255-.797.266-.383.777-.627.51-.256 1.275-.256.585 0 1.02.15.447.137.745.36.298.213.447.447.16.224.17.394.01.106-.064.18-.074.075-.17.075h-.946q-.054 0-.096-.01-.043-.022-.074-.054-.128-.085-.266-.191-.128-.117-.309-.202-.18-.086-.467-.086-.351 0-.543.16-.18.149-.18.383 0 .149.095.276.096.128.394.234.297.106.903.223.723.128 1.149.383.425.255.606.595.191.33.191.713 0 .5-.298.893-.297.382-.871.606-.564.212-1.393.212z" style="font-weight:600;font-family:Rubik;-inkscape-font-specification:&quot;Rubik Semi-Bold&quot;;letter-spacing:.0170304px;fill:#ededed;stroke:none" transform="translate(-65.32 -105.587)"/></g></svg>